#N canvas 590 96 636 515 10;
#X obj 119 94 osc~;
#X obj 119 202 *~;
#X obj 109 452 dac~;
#X floatatom 233 81 5 0 0 0 - - -;
#X obj 233 100 dbtorms;
#X msg 233 122 \$1 50;
#X obj 233 144 line~;
#X obj 166 117 osc~;
#X floatatom 119 38 5 0 0 0 - - -;
#X floatatom 166 64 5 0 0 0 - - -;
#X obj 119 303 *~;
#X obj 164 261 osc~ 1;
#X floatatom 238 224 5 0 0 0 - - -;
#X obj 362 469 tabwrite~ array1;
#N canvas 0 22 450 300 (subpatch) 0;
#X array array1 100 float 3;
#A 0 0 0 0 0 0 0 0 0 0 0 0 0 0 0 0 0 0 0 0 0 0 0 0 0 0 0 0 0 0 0 0
0 0 0 0 0 0 0 0 0 0 0 0 0 0 0 0 0 0 0 0 0 0 0 0 0 0 0 0 0 0 0 0 0 0
0 0 0 0 0 0 0 0 0 0 0 0 0 0 0 0 0 0 0 0 0 0 0 0 0 0 0 0 0 0 0 0 0 0
0;
#X coords 0 1 100 -1 200 140 1;
#X restore 394 30 graph;
#X obj 362 429 bng 15 250 50 0 empty empty empty 17 7 0 10 -262144
-1 -1;
#X obj 119 161 +~;
#X obj 404 400 tgl 15 0 empty empty empty 17 7 0 10 -262144 -1 -1 0
1;
#X obj 404 445 metro 100;
#X floatatom 430 421 5 0 0 0 - - -;
#X obj 348 351 writesf~;
#X msg 348 282 open ./beating.wav;
#X msg 375 304 start;
#X msg 375 325 stop;
#X msg 119 14 220;
#X msg 166 41 221;
#X obj 239 15 loadbang;
#X msg 238 55 90;
#X text 29 31 set freqs:;
#X text 274 80 set level;
#X text 273 229 set amplitude modulation;
#X text 441 321 record audio;
#X text 481 421 graph;
#X obj 119 232 *~;
#X text 207 261 oscillator controlling amplitude modulation;
#X obj 237 198 tgl 15 0 empty empty empty 17 7 0 10 -262144 -1 -1 0
1;
#X text 253 195 switch on/off;
#X connect 0 0 16 0;
#X connect 1 0 33 0;
#X connect 3 0 4 0;
#X connect 4 0 5 0;
#X connect 5 0 6 0;
#X connect 6 0 1 1;
#X connect 7 0 16 1;
#X connect 8 0 0 0;
#X connect 9 0 7 0;
#X connect 10 0 2 0;
#X connect 10 0 2 1;
#X connect 10 0 13 0;
#X connect 10 0 20 0;
#X connect 11 0 10 1;
#X connect 12 0 11 0;
#X connect 15 0 13 0;
#X connect 16 0 1 0;
#X connect 17 0 18 0;
#X connect 18 0 13 0;
#X connect 19 0 18 1;
#X connect 21 0 20 0;
#X connect 22 0 20 0;
#X connect 23 0 20 0;
#X connect 24 0 8 0;
#X connect 25 0 9 0;
#X connect 26 0 25 0;
#X connect 26 0 24 0;
#X connect 26 0 27 0;
#X connect 27 0 3 0;
#X connect 33 0 10 0;
#X connect 35 0 33 1;
