#N canvas 0 85 1280 939 12;
#X obj 370 545 dac~;
#X floatatom 308 283 0 0 0 0 - - -;
#X msg 103 500 \; pd dsp 1;
#X msg 103 532 \; pd dsp 0;
#X obj 307 156 notein;
#X obj 308 262 mtof;
#X obj 309 394 phasor~;
#X obj 358 465 *~;
#X obj 375 336 sig~;
#X floatatom 307 231 5 0 127 0 - - -;
#X floatatom 401 197 5 0 127 0 - - -;
#X obj 374 288 * 0.0078;
#X text 173 507 <- click to turn on;
#X text 173 536 <- click to turn off;
#X text 446 193 midi velocity;
#X text 408 542 audio output;
#X floatatom 427 444 5 0 0 0 - - -;
#X obj 426 465 sig~;
#X floatatom 471 472 5 0 0 0 - - -;
#X text 471 444 center frequency of the filter;
#X text 516 472 filter Q;
#X obj 370 500 vcf~ 10;
#X text 431 501 10 is the default Q;
#X obj 474 324 vline~;
#X msg 514 261 1 400 \, 0.8 200 400;
#X obj 375 363 *~;
#X obj 400 226 select 0;
#X msg 442 288 0 1000;
#X obj 308 196 stripnote;
#X obj 427 400 loadbang;
#X msg 427 422 1000;
#X text 476 226 check if this is a note off or a note on...;
#X text 650 263 ...if note on \, draw attack and decay lines;
#X text 491 291 ...if note off \, draw release line;
#X text 414 363 multiply velocity by ADSR envelope lines to scale volume
;
#X obj 308 315 sig~;
#X obj 252 214 osc~ 4;
#X obj 301 357 +~;
#X floatatom 190 302 5 0 0 0 - - -;
#X obj 237 325 *~;
#X floatatom 252 191 5 0 0 0 - - -;
#X obj 188 253 loadbang;
#X msg 189 276 2;
#X text 143 215 LFO oscillator;
#X text 149 190 LFO Frequency;
#X text 12 301 LFO amplitude multiplier;
#X text 96 325 scale LFO amplitude;
#X text 55 357 add scaled LFO output to frequency;
#X obj 402 51 bng 15 250 50 0 empty empty empty 17 7 0 10 -262144 -1
-1;
#X obj 442 54 bng 15 250 50 0 empty empty empty 17 7 0 10 -262144 -1
-1;
#X obj 481 54 bng 15 250 50 0 empty empty empty 17 7 0 10 -262144 -1
-1;
#X obj 516 55 bng 15 250 50 0 empty empty empty 17 7 0 10 -262144 -1
-1;
#X obj 545 53 bng 15 250 50 0 empty empty empty 17 7 0 10 -262144 -1
-1;
#X obj 580 57 bng 15 250 50 0 empty empty empty 17 7 0 10 -262144 -1
-1;
#X obj 616 56 bng 15 250 50 0 empty empty empty 17 7 0 10 -262144 -1
-1;
#X obj 656 55 bng 15 250 50 0 empty empty empty 17 7 0 10 -262144 -1
-1;
#X msg 446 98 71;
#X msg 515 99 74;
#X msg 550 99 76;
#X msg 480 99 73;
#X msg 588 99 78;
#X msg 627 99 80;
#X msg 664 97 81;
#X msg 404 97 69;
#X connect 1 0 35 0;
#X connect 4 0 28 0;
#X connect 4 1 10 0;
#X connect 4 1 28 1;
#X connect 5 0 1 0;
#X connect 6 0 7 0;
#X connect 7 0 21 0;
#X connect 8 0 25 0;
#X connect 9 0 5 0;
#X connect 10 0 26 0;
#X connect 11 0 8 0;
#X connect 16 0 17 0;
#X connect 17 0 21 1;
#X connect 18 0 21 2;
#X connect 21 0 0 0;
#X connect 21 0 0 1;
#X connect 23 0 25 1;
#X connect 24 0 23 0;
#X connect 25 0 7 1;
#X connect 26 0 27 0;
#X connect 26 1 24 0;
#X connect 26 1 11 0;
#X connect 27 0 23 0;
#X connect 28 0 9 0;
#X connect 29 0 30 0;
#X connect 30 0 16 0;
#X connect 35 0 37 1;
#X connect 36 0 39 1;
#X connect 37 0 6 0;
#X connect 38 0 39 0;
#X connect 39 0 37 0;
#X connect 40 0 36 0;
#X connect 41 0 42 0;
#X connect 42 0 38 0;
#X connect 48 0 63 0;
#X connect 48 0 24 0;
#X connect 49 0 56 0;
#X connect 50 0 59 0;
#X connect 51 0 57 0;
#X connect 52 0 58 0;
#X connect 53 0 60 0;
#X connect 54 0 61 0;
#X connect 55 0 62 0;
#X connect 56 0 9 0;
#X connect 57 0 9 0;
#X connect 58 0 9 0;
#X connect 59 0 9 0;
#X connect 60 0 9 0;
#X connect 61 0 9 0;
#X connect 62 0 9 0;
#X connect 63 0 9 0;
