#N canvas 526 178 450 300 10;
#X obj 58 87 osc~;
#X obj 61 18 loadbang;
#X floatatom 58 50 5 0 0 0 - - -;
#X obj 63 149 output~;
#X connect 0 0 3 0;
#X connect 0 0 3 1;
#X connect 1 0 2 0;
#X connect 2 0 0 0;
